<svg width="44" height="55" viewBox="0 0 44 55" fill="none" xmlns="http://www.w3.org/2000/svg">
<path d="M20.9194 8.17063C21.0531 8.24768 21.1868 8.32472 21.3245 8.40409C21.7291 8.58536 21.7291 8.58536 22.1785 8.37815C22.322 8.30162 22.4656 8.22508 22.6134 8.14622C23.9225 7.65703 25.3164 7.52892 26.6927 7.88301C28.1146 8.43641 29.0657 9.32026 29.6415 10.5754C29.7108 10.8232 29.7108 10.8232 29.7815 11.0759C30.0033 11.088 30.225 11.1001 30.4535 11.1125C31.7644 11.288 32.7565 11.7922 33.5458 12.7261C34.3029 13.8079 34.7408 14.6165 34.7235 15.8977C34.7215 16.0918 34.7195 16.2859 34.7174 16.4859C34.7148 16.6342 34.7122 16.7825 34.7095 16.9353C34.917 17.0195 34.917 17.0195 35.1287 17.1054C36.0873 17.5486 36.5228 18.2614 36.8936 19.1203C37.3709 20.5168 37.4101 21.7021 36.6976 23.0388C36.316 23.6511 35.949 24.0816 35.3396 24.5281C34.4988 25.1847 34.5041 25.9646 34.3683 26.9016C34.1597 28.0363 33.6604 28.7875 32.7355 29.594C31.6892 30.2201 30.858 30.6072 29.5575 30.6072C29.4951 30.8126 29.4951 30.8126 29.4315 31.0222C28.908 31.935 28.0543 32.5408 27.0042 32.9807C25.871 33.3026 24.557 33.3682 23.4464 32.957C23.1514 32.8106 22.8571 32.6632 22.5635 32.5145C22.1229 32.3105 22.1229 32.3105 21.4374 32.487C21.0883 32.6393 20.741 32.7953 20.4014 32.9631C19.3957 33.35 18.2298 33.2858 17.1884 33.0188C16.0565 32.5766 15.2253 31.9042 14.5493 30.9978C14.5493 30.8689 14.5493 30.74 14.5493 30.6072C14.3137 30.587 14.0781 30.5669 13.8353 30.5461C12.4546 30.329 11.6922 29.7799 10.8218 28.8547C10.1765 28.0156 9.81461 27.1175 9.88902 26.1066C9.9136 25.5123 9.9136 25.5123 9.43577 25.1415C9.25674 25.0277 9.07772 24.9139 8.89326 24.7966C7.61633 23.8743 7.0719 22.9412 6.85799 21.5099C6.79338 20.0972 7.16058 18.9327 8.17926 17.8264C8.72526 17.3259 8.72526 17.3259 9.17327 17.1306C9.21967 16.7046 9.24374 16.2766 9.25727 15.8489C9.37703 14.1609 9.74815 13.225 11.1753 12.0769C12.045 11.4581 12.732 11.0759 13.8773 11.0759C13.9235 10.9107 13.9697 10.7456 14.0173 10.5754C14.588 9.33146 15.5381 8.42941 16.953 7.88453C18.3341 7.53424 19.6526 7.5659 20.9194 8.17063Z" fill="#011E4B"/>
<path d="M35.3255 4.08975C35.8813 4.51895 36.4173 4.96068 36.9495 5.41192C37.1006 5.53151 37.2516 5.6511 37.4072 5.77432C41.342 8.98606 43.7494 13.6928 43.9391 18.3758C44.0426 23.6856 42.1345 28.0761 38.34 32.2071C36.3813 34.369 34.8793 36.815 34.2729 39.5382C34.2359 39.7036 34.1988 39.8689 34.1607 40.0393C34.0894 40.3687 34.0225 40.699 33.9607 41.0299C33.9286 41.1832 33.8965 41.3365 33.8634 41.4944C33.8374 41.6311 33.8114 41.7677 33.7847 41.9086C33.4815 42.557 33.0981 42.8651 32.4695 43.3025C31.7886 43.4451 31.1249 43.4361 30.4272 43.4289C30.2235 43.4306 30.0197 43.4323 29.8098 43.4341C29.1376 43.4384 28.4657 43.4355 27.7934 43.4322C27.3256 43.4329 26.8578 43.4338 26.39 43.4351C25.4101 43.4365 24.4303 43.4344 23.4503 43.4299C22.1946 43.4243 20.9391 43.4275 19.6834 43.4333C18.7176 43.4369 17.7518 43.4358 16.7859 43.4332C16.3229 43.4326 15.86 43.4334 15.397 43.4356C14.7497 43.4381 14.1028 43.4343 13.4555 43.4289C13.2644 43.4309 13.0733 43.4329 12.8764 43.4349C11.9059 43.4198 11.527 43.3806 10.7392 42.8397C10.246 42.2715 10.0982 41.9006 9.95725 41.2029C9.14357 37.7187 7.8516 34.9635 5.3932 32.1087C1.40267 27.4698 -0.705056 22.3977 0.21314 16.5447C1.09856 11.6343 4.03478 7.10145 8.55723 4.04321C11.2783 2.32442 13.9772 1.24222 17.2373 0.529108C17.5254 0.462263 17.5254 0.462263 17.8192 0.394068C23.7922 -0.786196 30.6084 0.753814 35.3255 4.08975ZM8.27723 8.14629C4.35919 11.9329 3.36322 16.2637 3.53205 21.2233C3.62227 22.5283 3.97809 23.7091 4.46919 24.9432C4.55033 25.1504 4.63147 25.3576 4.71506 25.5711C5.48293 27.3345 6.67548 28.8279 7.98148 30.3196C10.2922 32.9683 11.7105 35.6194 12.7573 38.8104C12.9042 39.2017 13.0527 39.5926 13.2053 39.9822C13.7609 39.7427 14.3163 39.5026 14.8713 39.262C15.0353 39.191 15.1992 39.12 15.3681 39.0468C16.3931 38.6002 17.3983 38.1357 18.381 37.6209C19.1175 37.3124 19.6849 37.1951 20.4854 37.3707C20.6702 37.4309 20.855 37.491 21.0454 37.553C22.0036 37.8262 22.368 37.8329 23.2854 37.4432C25.1618 37.2551 26.2635 37.7966 27.8494 38.6273C28.284 38.851 28.7197 39.0731 29.1567 39.2933C29.3468 39.3925 29.5369 39.4917 29.7328 39.5939C30.2513 39.8538 30.2513 39.8538 30.9015 39.5916C31.0938 39.1317 31.0938 39.1317 31.2095 38.5662C32.0037 35.55 33.527 32.942 35.7035 30.5218C39.2484 26.5786 40.9966 22.3608 40.5336 17.326C39.8092 12.8453 37.0023 9.12785 33.0881 6.25497C32.5431 5.89986 31.9669 5.65868 31.3495 5.41192C31.092 5.2583 30.8354 5.10356 30.5795 4.94805C23.5333 1.08928 13.8124 3.24581 8.27723 8.14629Z" fill="#002251"/>
<path d="M25.9734 9.70869C26.8845 10.1468 27.4264 10.6465 27.8354 11.4787C27.7654 12.0524 27.7654 12.0524 27.1214 12.5407C26.9967 12.618 26.8719 12.6953 26.7434 12.7749C26.345 13.0428 26.345 13.0428 26.2254 13.676C26.2162 13.8492 26.2069 14.0224 26.1974 14.2009C27.106 14.1095 27.8698 14.0291 28.6614 13.6149C28.6614 13.486 28.6614 13.3571 28.6614 13.2243C29.3034 12.9444 29.7395 12.9691 30.4534 13.029C31.4424 13.4855 31.9914 13.9081 32.4695 14.7868C32.5211 15.475 32.5211 15.475 32.5115 16.2272C32.5299 16.9794 32.5602 17.559 33.089 18.1842C33.5619 18.5373 33.5619 18.5373 34.0576 18.8113C34.6851 19.2107 34.8862 19.61 35.0087 20.2708C35.0316 21.3802 34.8582 22.3045 34.0375 23.1853C33.579 23.4172 33.579 23.4172 33.0855 23.6247C32.5996 23.8294 32.5996 23.8294 32.2455 24.1618C32.1408 24.7683 32.1762 25.319 32.2218 25.9303C32.2561 26.7646 32.0801 27.166 31.5735 27.8728C30.4707 28.654 30.4707 28.654 29.5574 28.654C29.4786 28.4984 29.3998 28.3428 29.3186 28.1825C28.3672 26.3763 28.3672 26.3763 26.6454 25.1384C26.3497 25.1384 26.054 25.1384 25.7494 25.1384C25.7811 26.2456 26.3453 26.7549 27.1844 27.5149C27.6925 28.0241 27.763 28.4404 27.8494 29.1057C27.738 30.0608 27.4135 30.328 26.6454 30.9978C25.9262 31.3113 25.1856 31.2877 24.4054 31.1931C23.1734 30.6071 23.1734 30.6071 22.8374 30.0212C22.8117 29.4175 22.7998 28.8181 22.7977 28.2143C22.7962 28.0269 22.7948 27.8395 22.7932 27.6464C22.7888 27.0245 22.7862 26.4027 22.784 25.7808C22.7831 25.5688 22.7822 25.3568 22.7812 25.1384C22.7765 24.0167 22.7733 22.8951 22.7712 21.7734C22.7688 20.6131 22.7611 19.4528 22.7522 18.2925C22.7463 17.4017 22.7444 16.5111 22.7436 15.6203C22.7425 15.1925 22.7399 14.7647 22.7358 14.3368C22.7303 13.7387 22.7305 13.1408 22.7321 12.5427C22.7292 12.3653 22.7263 12.188 22.7234 12.0052C22.7348 10.8041 22.7348 10.8041 23.2639 10.1907C24.135 9.65868 24.9267 9.53633 25.9734 9.70869Z" fill="#1B90F1"/>
<path d="M19.7012 9.70875C20.3442 10.0591 20.7073 10.2913 21.0453 10.8806C21.0697 11.4654 21.0805 12.0457 21.0814 12.6307C21.083 12.9027 21.083 12.9027 21.0847 13.1803C21.088 13.7822 21.0895 14.3841 21.0908 14.986C21.092 15.4035 21.0933 15.821 21.0946 16.2385C21.097 17.1147 21.0983 17.991 21.0991 18.8673C21.1003 19.9904 21.1057 21.1135 21.1121 22.2366C21.1162 23.0993 21.1174 23.962 21.1177 24.8248C21.1184 25.2388 21.1202 25.6529 21.1232 26.0669C21.127 26.6462 21.1266 27.2254 21.1251 27.8048C21.1282 28.0616 21.1282 28.0616 21.1314 28.3236C21.1224 29.4581 20.9144 30.1353 19.9672 30.9612C19.2934 31.2802 18.892 31.2857 18.1332 31.1931C17.0625 30.7077 16.4846 30.1523 15.8932 29.24C15.8932 29.1111 15.8932 28.9822 15.8932 28.8494C15.7607 28.8607 15.6281 28.872 15.4916 28.8837C14.033 28.9563 14.033 28.9563 13.2192 28.3977C12.4658 27.5418 12.1675 27.0671 12.1954 26.0006C12.4697 24.8635 13.5681 24.1811 14.5632 23.4905C15.7678 22.9411 17.2536 23.0221 18.5812 22.99C18.6668 22.6665 18.7412 22.3407 18.8052 22.0134C18.3818 21.6442 17.6908 21.7671 17.1252 21.7571C15.6757 21.7648 14.6709 21.9645 13.4292 22.5994C13.2167 22.6961 13.0041 22.7927 12.7852 22.8923C12.2789 23.204 11.9753 23.5166 11.6372 23.9666C10.7583 23.9228 10.5258 23.7792 9.90114 23.2097C9.07129 22.2048 9.01182 21.2661 9.17313 20.0603C9.56186 19.4276 9.93994 19.0011 10.5171 18.4978C11.1025 18.5506 11.4133 18.6932 11.8892 18.9983C12.8479 19.4163 13.7212 19.4081 14.7732 19.2791C15.8518 18.9478 16.6367 18.3671 17.2372 17.5213C17.4157 16.8987 17.4157 16.8987 17.4612 16.3494C17.0916 16.2849 16.722 16.2205 16.3412 16.1541C16.2494 16.2646 16.1576 16.3751 16.063 16.489C15.9423 16.6323 15.8216 16.7755 15.6972 16.9231C15.5777 17.0659 15.4581 17.2086 15.3349 17.3557C14.8403 17.8842 14.5972 17.9071 13.8072 17.9851C12.9812 17.9119 12.9812 17.9119 12.3512 17.4724C11.6322 16.6844 11.4081 16.4293 11.4272 15.3972C11.5896 14.4935 12.0128 14.0536 12.7572 13.4197C13.5528 12.9174 14.4913 12.9169 15.4452 12.8338C15.5145 12.4893 15.5145 12.4893 15.5852 12.138C15.8521 11.1901 16.4293 10.5645 17.2372 9.90407C18.0117 9.56643 18.8545 9.61311 19.7012 9.70875Z" fill="#1B8FF0"/>
<path d="M19.7591 49.3243C19.9713 49.3237 20.1835 49.323 20.4021 49.3223C20.8475 49.3213 21.2929 49.3209 21.7383 49.3209C22.4171 49.3205 23.0958 49.3169 23.7745 49.3132C24.2094 49.3127 24.6443 49.3123 25.0792 49.3121C25.2804 49.3107 25.4815 49.3093 25.6888 49.3078C26.84 49.3115 27.8014 49.3992 28.8855 49.7477C29.3429 50.213 29.335 50.4676 29.3195 51.0783C28.9773 52.0928 28.4931 52.7875 27.4566 53.3648C25.6239 54.1912 24.0481 54.2801 22.0114 54.2887C21.7788 54.2928 21.5462 54.2968 21.3066 54.301C19.4055 54.3093 17.4501 54.106 15.8933 53.068C14.9979 52.2873 14.7437 51.5966 14.5493 50.529C14.7173 50.0529 14.7173 50.0529 14.9973 49.7477C16.3649 49.1515 18.264 49.3259 19.7591 49.3243Z" fill="#002253"/>
<path d="M15.2334 44.8366C15.3934 44.8359 15.5534 44.8352 15.7182 44.8346C16.2473 44.8327 16.7764 44.8323 17.3055 44.8321C17.6735 44.8315 18.0415 44.8308 18.4095 44.8302C19.1812 44.829 19.9529 44.8286 20.7245 44.8287C21.7125 44.8288 22.7005 44.8261 23.6885 44.8227C24.4487 44.8206 25.2089 44.8202 25.9691 44.8203C26.3333 44.82 26.6975 44.8192 27.0617 44.8177C27.5716 44.8157 28.0814 44.8163 28.5913 44.8175C29.0262 44.8171 29.0262 44.8171 29.47 44.8166C30.414 44.8767 31.0629 45.0307 31.7694 45.5851C32.1447 46.2578 32.0193 46.6947 31.7974 47.404C31.2531 47.9106 30.9281 47.9873 30.1294 48.067C29.8173 48.0716 29.5052 48.0731 29.193 48.0719C29.0221 48.0736 28.8512 48.0753 28.6751 48.077C28.1108 48.0815 27.5466 48.0817 26.9823 48.0815C26.5895 48.0829 26.1967 48.0844 25.8039 48.086C24.9808 48.0886 24.1578 48.0889 23.3347 48.0878C22.2806 48.0866 21.2268 48.0926 20.1727 48.1005C19.3615 48.1055 18.5504 48.1061 17.7393 48.1054C17.3507 48.1057 16.9621 48.1076 16.5735 48.1111C16.0297 48.1154 15.4864 48.1135 14.9426 48.1101C14.7826 48.1127 14.6226 48.1153 14.4577 48.1179C13.5939 48.1053 13.229 48.0064 12.5445 47.5315C12.0852 47.0134 12.0852 47.0134 11.9592 46.4152C12.1125 45.7171 12.3424 45.4899 12.9812 45.0602C13.7716 44.8305 14.399 44.8387 15.2334 44.8366Z" fill="#002253"/>
<path d="M29.1093 18.1072C30.1273 18.5135 30.9924 19.0103 31.5733 19.865C31.4255 20.1228 31.2777 20.3806 31.1253 20.6462C30.5093 20.6951 30.5093 20.6951 29.7813 20.6462C29.4781 20.3899 29.1792 20.1295 28.8853 19.865C28.3157 19.751 28.3157 19.751 27.7653 19.865C27.659 19.9617 27.5528 20.0583 27.4433 20.158C27.0933 20.4509 27.0933 20.4509 26.3933 20.4997C25.7493 20.4509 25.7493 20.4509 25.5253 20.2556C25.4623 19.7956 25.4623 19.7956 25.5253 19.279C26.4421 18.299 27.6858 17.7831 29.1093 18.1072Z" fill="#011A46"/>
</svg>
