<svg width="202" height="74" viewBox="0 0 202 74" fill="none" xmlns="http://www.w3.org/2000/svg">
<path d="M35.0422 18.1706C35.1639 18.2477 35.2856 18.3247 35.411 18.4041C35.7793 18.5854 35.7793 18.5854 36.1884 18.3782C36.319 18.3016 36.4497 18.2251 36.5843 18.1462C37.7759 17.657 39.0447 17.5289 40.2975 17.883C41.5918 18.4364 42.4575 19.3203 42.9817 20.5754C43.0448 20.8232 43.0448 20.8232 43.1091 21.0759C43.311 21.088 43.5129 21.1001 43.7208 21.1125C44.9141 21.288 45.8172 21.7922 46.5356 22.7261C47.2248 23.8079 47.6235 24.6165 47.6077 25.8977C47.6059 26.0918 47.604 26.2859 47.6021 26.4859C47.5998 26.6342 47.5974 26.7825 47.595 26.9353C47.7838 27.0195 47.7838 27.0195 47.9765 27.1054C48.8491 27.5486 49.2456 28.2614 49.583 29.1203C50.0175 30.5168 50.0532 31.7021 49.4046 33.0388C49.0573 33.6511 48.7232 34.0816 48.1685 34.5281C47.4031 35.1847 47.408 35.9646 47.2843 36.9016C47.0944 38.0363 46.64 38.7875 45.7981 39.594C44.8456 40.2201 44.0891 40.6072 42.9052 40.6072C42.8485 40.8126 42.8485 40.8126 42.7905 41.0222C42.314 41.935 41.5369 42.5408 40.5811 42.9807C39.5495 43.3026 38.3534 43.3682 37.3425 42.957C37.074 42.8106 36.8061 42.6632 36.5389 42.5145C36.1377 42.3105 36.1377 42.3105 35.5138 42.487C35.1959 42.6393 34.8799 42.7953 34.5707 42.9631C33.6553 43.35 32.594 43.2858 31.646 43.0188C30.6157 42.5766 29.8591 41.9042 29.2438 40.9978C29.2438 40.8689 29.2438 40.74 29.2438 40.6072C29.0293 40.587 28.8148 40.5669 28.5938 40.5461C27.337 40.329 26.6431 39.7799 25.8507 38.8547C25.2634 38.0156 24.9339 37.1175 25.0017 36.1066C25.024 35.5123 25.024 35.5123 24.5891 35.1415C24.4261 35.0277 24.2631 34.9139 24.0952 34.7966C22.9329 33.8743 22.4373 32.9412 22.2426 31.5099C22.1838 30.0972 22.518 28.9327 23.4453 27.8264C23.9423 27.3259 23.9423 27.3259 24.3501 27.1306C24.3924 26.7046 24.4143 26.2766 24.4266 25.8489C24.5356 24.1609 24.8734 23.225 26.1725 22.0769C26.9642 21.4581 27.5896 21.0759 28.6321 21.0759C28.6741 20.9107 28.7162 20.7456 28.7595 20.5754C29.279 19.3315 30.1438 18.4294 31.4317 17.8845C32.689 17.5342 33.8891 17.5659 35.0422 18.1706Z" fill="#011E4B"/>
<path d="M48.1557 14.0897C48.6616 14.519 49.1495 14.9607 49.634 15.4119C49.7714 15.5315 49.9089 15.6511 50.0505 15.7743C53.6323 18.9861 55.8237 23.6928 55.9964 28.3758C56.0906 33.6856 54.3537 38.0761 50.8997 42.2071C49.1167 44.369 47.7495 46.815 47.1975 49.5382C47.1638 49.7035 47.1301 49.8689 47.0954 50.0393C47.0305 50.3687 46.9696 50.699 46.9134 51.0299C46.8841 51.1832 46.8549 51.3365 46.8247 51.4944C46.8011 51.6311 46.7775 51.7677 46.7531 51.9086C46.4771 52.557 46.1281 52.8651 45.5559 53.3025C44.9362 53.4451 44.332 53.4361 43.6969 53.4289C43.5115 53.4306 43.326 53.4323 43.1349 53.4341C42.523 53.4384 41.9114 53.4355 41.2995 53.4322C40.8736 53.4329 40.4478 53.4338 40.022 53.4351C39.13 53.4365 38.2381 53.4344 37.3461 53.4299C36.203 53.4243 35.0602 53.4275 33.9172 53.4333C33.038 53.4369 32.1589 53.4358 31.2797 53.4332C30.8582 53.4326 30.4368 53.4334 30.0154 53.4356C29.4262 53.4381 28.8373 53.4343 28.2481 53.4289C28.0742 53.4309 27.9002 53.4329 27.721 53.4349C26.8375 53.4198 26.4927 53.3806 25.7755 52.8397C25.3266 52.2715 25.1921 51.9006 25.0638 51.2029C24.3231 47.7187 23.1471 44.9635 20.9093 42.1087C17.2768 37.4698 15.3582 32.3977 16.194 26.5447C17 21.6343 19.6727 17.1014 23.7894 14.0432C26.2663 12.3244 28.723 11.2422 31.6906 10.5291C31.9528 10.4623 31.9528 10.4623 32.2203 10.3941C37.6573 9.2138 43.8618 10.7538 48.1557 14.0897ZM23.5345 18.1463C19.968 21.9329 19.0614 26.2637 19.2151 31.2233C19.2972 32.5283 19.6211 33.7091 20.0682 34.9432C20.142 35.1504 20.2159 35.3576 20.292 35.5711C20.9909 37.3345 22.0765 38.8279 23.2653 40.3196C25.3687 42.9683 26.6597 45.6194 27.6125 48.8104C27.7463 49.2017 27.8814 49.5926 28.0203 49.9822C28.5261 49.7427 29.0316 49.5026 29.5369 49.262C29.6861 49.191 29.8354 49.12 29.9891 49.0468C30.9222 48.6002 31.8371 48.1357 32.7316 47.6209C33.402 47.3124 33.9185 47.1951 34.6472 47.3707C34.8154 47.4309 34.9836 47.491 35.1569 47.553C36.0292 47.8262 36.3608 47.8329 37.1959 47.4432C38.904 47.2551 39.9068 47.7966 41.3505 48.6273C41.746 48.851 42.1427 49.0731 42.5404 49.2933C42.7135 49.3925 42.8865 49.4917 43.0648 49.5939C43.5368 49.8538 43.5368 49.8538 44.1286 49.5916C44.3037 49.1317 44.3037 49.1317 44.409 48.5662C45.1319 45.55 46.5185 42.942 48.4998 40.5218C51.7265 36.5786 53.3179 32.3608 52.8964 27.326C52.237 22.8453 49.682 19.1278 46.1191 16.255C45.6229 15.8999 45.0985 15.6587 44.5364 15.4119C44.3021 15.2583 44.0685 15.1036 43.8355 14.9481C37.4216 11.0893 28.573 13.2458 23.5345 18.1463Z" fill="#002251"/>
<path d="M39.6427 19.7087C40.472 20.1468 40.9653 20.6465 41.3376 21.4787C41.2739 22.0524 41.2739 22.0524 40.6877 22.5407C40.5742 22.618 40.4606 22.6953 40.3436 22.7749C39.981 23.0428 39.981 23.0428 39.8721 23.676C39.8637 23.8492 39.8553 24.0224 39.8466 24.2009C40.6736 24.1095 41.3689 24.0291 42.0895 23.6149C42.0895 23.486 42.0895 23.3571 42.0895 23.2243C42.6739 22.9444 43.0709 22.9691 43.7207 23.029C44.6209 23.4855 45.1207 23.9081 45.5559 24.7868C45.6029 25.475 45.6029 25.475 45.5941 26.2272C45.6109 26.9794 45.6385 27.559 46.1198 28.1842C46.5503 28.5373 46.5503 28.5373 47.0015 28.8113C47.5727 29.2107 47.7558 29.61 47.8673 30.2708C47.8881 31.3802 47.7303 32.3045 46.9832 33.1853C46.5658 33.4172 46.5658 33.4172 46.1166 33.6247C45.6743 33.8294 45.6743 33.8294 45.352 34.1618C45.2567 34.7683 45.2889 35.319 45.3305 35.9303C45.3616 36.7646 45.2014 37.166 44.7403 37.8728C43.7364 38.654 43.7364 38.654 42.9051 38.654C42.8334 38.4984 42.7616 38.3428 42.6877 38.1825C41.8217 36.3763 41.8217 36.3763 40.2544 35.1384C39.9853 35.1384 39.7161 35.1384 39.4388 35.1384C39.4677 36.2456 39.9813 36.7549 40.745 37.5149C41.2075 38.0241 41.2718 38.4404 41.3504 39.1057C41.249 40.0608 40.9536 40.328 40.2544 40.9978C39.5997 41.3113 38.9256 41.2877 38.2154 41.1931C37.0939 40.6071 37.0939 40.6071 36.7881 40.0212C36.7647 39.4175 36.7538 38.8181 36.752 38.2143C36.7506 38.0269 36.7493 37.8395 36.7479 37.6464C36.7439 37.0245 36.7415 36.4027 36.7395 35.7808C36.7387 35.5688 36.7378 35.3568 36.737 35.1384C36.7327 34.0167 36.7298 32.8951 36.7279 31.7734C36.7256 30.6131 36.7186 29.4528 36.7105 28.2925C36.7052 27.4017 36.7035 26.5111 36.7027 25.6203C36.7018 25.1925 36.6994 24.7647 36.6956 24.3368C36.6907 23.7387 36.6908 23.1408 36.6922 22.5427C36.6896 22.3653 36.687 22.188 36.6843 22.0052C36.6947 20.8041 36.6947 20.8041 37.1764 20.1907C37.9693 19.6587 38.6899 19.5363 39.6427 19.7087Z" fill="#1B90F1"/>
<path d="M33.9335 19.7088C34.5187 20.0591 34.8492 20.2913 35.1569 20.8806C35.1791 21.4654 35.189 22.0457 35.1897 22.6307C35.1912 22.9027 35.1912 22.9027 35.1928 23.1803C35.1958 23.7822 35.1972 24.3841 35.1983 24.986C35.1995 25.4035 35.2006 25.821 35.2018 26.2385C35.204 27.1147 35.2051 27.991 35.2059 28.8673C35.207 29.9904 35.2119 31.1135 35.2177 32.2366C35.2215 33.0993 35.2225 33.962 35.2229 34.8248C35.2235 35.2388 35.2251 35.6529 35.2278 36.0669C35.2313 36.6462 35.2309 37.2254 35.2296 37.8048C35.2324 38.0616 35.2324 38.0616 35.2352 38.3236C35.2271 39.4581 35.0378 40.1353 34.1756 40.9612C33.5622 41.2802 33.1968 41.2857 32.5061 41.1931C31.5315 40.7077 31.0055 40.1523 30.4671 39.24C30.4671 39.1111 30.4671 38.9822 30.4671 38.8494C30.3465 38.8607 30.2258 38.872 30.1015 38.8837C28.7738 38.9563 28.7738 38.9563 28.033 38.3977C27.3473 37.5418 27.0758 37.0671 27.1011 36.0006C27.3508 34.8635 28.3506 34.1811 29.2565 33.4905C30.353 32.9411 31.7055 33.0221 32.9139 32.99C32.9919 32.6665 33.0595 32.3407 33.1179 32.0134C32.7324 31.6442 32.1034 31.7671 31.5886 31.7571C30.2691 31.7648 29.3545 31.9645 28.2242 32.5994C28.0307 32.6961 27.8373 32.7927 27.638 32.8923C27.1771 33.204 26.9008 33.5166 26.593 33.9666C25.793 33.9228 25.5814 33.7792 25.0127 33.2097C24.2574 32.2048 24.2032 31.2661 24.3501 30.0603C24.7039 29.4276 25.0481 29.0011 25.5735 28.4978C26.1063 28.5506 26.3892 28.6932 26.8224 28.9983C27.6951 29.4163 28.49 29.4081 29.4476 29.2791C30.4294 28.9478 31.1439 28.3671 31.6905 27.5213C31.853 26.8987 31.853 26.8987 31.8944 26.3494C31.558 26.2849 31.2216 26.2205 30.8749 26.1541C30.7913 26.2646 30.7078 26.3751 30.6216 26.489C30.5118 26.6323 30.4019 26.7755 30.2887 26.9231C30.1799 27.0659 30.0711 27.2086 29.959 27.3557C29.5087 27.8842 29.2874 27.9071 28.5683 27.9851C27.8164 27.9119 27.8164 27.9119 27.2429 27.4724C26.5885 26.6844 26.3844 26.4293 26.4018 25.3972C26.5497 24.4935 26.9349 24.0536 27.6125 23.4197C28.3367 22.9174 29.1911 22.9169 30.0593 22.8338C30.1224 22.4893 30.1224 22.4893 30.1868 22.138C30.4297 21.1901 30.9551 20.5645 31.6905 19.9041C32.3955 19.5664 33.1627 19.6131 33.9335 19.7088Z" fill="#1B8FF0"/>
<path d="M33.986 59.3243C34.1791 59.3237 34.3723 59.323 34.5713 59.3223C34.9767 59.3213 35.3821 59.3209 35.7875 59.3209C36.4054 59.3205 37.0232 59.3169 37.6411 59.3132C38.0369 59.3127 38.4328 59.3123 38.8287 59.3121C39.0118 59.3107 39.1949 59.3093 39.3836 59.3078C40.4315 59.3115 41.3066 59.3992 42.2934 59.7477C42.7097 60.213 42.7026 60.4676 42.6885 61.0783C42.3769 62.0928 41.9363 62.7875 40.9927 63.3648C39.3245 64.1912 37.8901 64.2801 36.0361 64.2887C35.8244 64.2928 35.6127 64.2968 35.3946 64.301C33.6641 64.3093 31.8841 64.106 30.4671 63.068C29.652 62.2873 29.4206 61.5966 29.2437 60.529C29.3966 60.0529 29.3966 60.0529 29.6515 59.7477C30.8963 59.1515 32.625 59.3259 33.986 59.3243Z" fill="#002253"/>
<path d="M29.8664 54.8366C30.012 54.8359 30.1576 54.8352 30.3076 54.8346C30.7893 54.8327 31.2709 54.8323 31.7526 54.8321C32.0875 54.8315 32.4225 54.8308 32.7575 54.8302C33.4599 54.829 34.1623 54.8286 34.8648 54.8287C35.7641 54.8288 36.6634 54.8261 37.5627 54.8227C38.2547 54.8206 38.9467 54.8202 39.6387 54.8203C39.9703 54.82 40.3018 54.8192 40.6333 54.8177C41.0974 54.8157 41.5615 54.8163 42.0256 54.8175C42.4215 54.8171 42.4215 54.8171 42.8254 54.8166C43.6847 54.8767 44.2755 55.0307 44.9186 55.5851C45.2602 56.2578 45.146 56.6947 44.9441 57.404C44.4486 57.9106 44.1527 57.9873 43.4257 58.067C43.1416 58.0716 42.8575 58.0731 42.5734 58.0719C42.4178 58.0736 42.2622 58.0753 42.1019 58.077C41.5882 58.0815 41.0747 58.0817 40.561 58.0815C40.2034 58.0829 39.8459 58.0844 39.4883 58.086C38.7391 58.0886 37.99 58.0889 37.2407 58.0878C36.2812 58.0866 35.3219 58.0926 34.3624 58.1005C33.6241 58.1055 32.8858 58.1061 32.1474 58.1054C31.7937 58.1057 31.4399 58.1076 31.0862 58.1111C30.5912 58.1154 30.0967 58.1135 29.6017 58.1101C29.456 58.1127 29.3103 58.1153 29.1602 58.1179C28.374 58.1053 28.0418 58.0064 27.4188 57.5315C27.0007 57.0134 27.0007 57.0134 26.886 56.4152C27.0255 55.7171 27.2348 55.4899 27.8163 55.0602C28.5358 54.8305 29.1068 54.8387 29.8664 54.8366Z" fill="#002253"/>
<path d="M42.4973 28.1072C43.424 28.5135 44.2115 29.0103 44.7403 29.865C44.6057 30.1228 44.4711 30.3806 44.3325 30.6462C43.7717 30.6951 43.7717 30.6951 43.109 30.6462C42.833 30.3899 42.561 30.1295 42.2934 29.865C41.7749 29.751 41.7749 29.751 41.2739 29.865C41.1772 29.9617 41.0805 30.0583 40.9808 30.158C40.6622 30.4509 40.6622 30.4509 40.025 30.4997C39.4388 30.4509 39.4388 30.4509 39.2349 30.2556C39.1776 29.7956 39.1776 29.7956 39.2349 29.279C40.0694 28.299 41.2016 27.7831 42.4973 28.1072Z" fill="#011A46"/>
<path d="M74.3295 20.1818V42H68.4062V20.1818H74.3295ZM83.1026 32.7955V42H77.2219V25.6364H82.8043V28.7472H82.9748C83.3299 27.7102 83.9549 26.897 84.8498 26.3075C85.7518 25.718 86.8029 25.4233 88.0032 25.4233C89.1609 25.4233 90.1658 25.6896 91.0181 26.2223C91.8775 26.7479 92.5415 27.4723 93.0103 28.3956C93.4862 29.3189 93.7205 30.3736 93.7134 31.5597V42H87.8327V32.7955C87.8398 31.9858 87.6339 31.3501 87.2148 30.8885C86.8029 30.4268 86.2276 30.196 85.489 30.196C85.006 30.196 84.5835 30.3026 84.2212 30.5156C83.8661 30.7216 83.5927 31.0199 83.4009 31.4105C83.2092 31.794 83.1097 32.2557 83.1026 32.7955ZM104.5 42.2983C102.724 42.2983 101.205 41.9467 99.9403 41.2436C98.6761 40.5334 97.7067 39.5462 97.032 38.282C96.3572 37.0107 96.0199 35.5369 96.0199 33.8608C96.0199 32.1847 96.3572 30.7145 97.032 29.4503C97.7067 28.179 98.6761 27.1918 99.9403 26.4886C101.205 25.7784 102.724 25.4233 104.5 25.4233C106.105 25.4233 107.494 25.7145 108.665 26.2969C109.844 26.8722 110.757 27.6889 111.403 28.7472C112.05 29.7983 112.376 31.0341 112.384 32.4545H106.929C106.851 31.5952 106.602 30.9418 106.183 30.4943C105.771 30.0398 105.239 29.8125 104.585 29.8125C104.074 29.8125 103.626 29.9616 103.243 30.2599C102.859 30.5511 102.561 30.995 102.348 31.5916C102.135 32.1811 102.028 32.9233 102.028 33.8182C102.028 34.7131 102.135 35.4588 102.348 36.0554C102.561 36.6449 102.859 37.0888 103.243 37.3871C103.626 37.6783 104.074 37.8239 104.585 37.8239C105.018 37.8239 105.402 37.7244 105.736 37.5256C106.07 37.3196 106.339 37.0213 106.545 36.6307C106.759 36.233 106.886 35.75 106.929 35.1818H112.384C112.362 36.6236 112.032 37.8807 111.393 38.9531C110.754 40.0185 109.848 40.8423 108.676 41.4247C107.511 42.0071 106.119 42.2983 104.5 42.2983ZM122.651 42.2983C120.904 42.2983 119.398 41.9645 118.134 41.2969C116.877 40.6222 115.907 39.6562 115.225 38.3991C114.551 37.1349 114.213 35.6222 114.213 33.8608C114.213 32.1705 114.554 30.6932 115.236 29.429C115.918 28.1648 116.88 27.1811 118.123 26.478C119.366 25.7749 120.833 25.4233 122.523 25.4233C123.759 25.4233 124.877 25.6151 125.879 25.9986C126.88 26.3821 127.736 26.9396 128.446 27.6712C129.156 28.3956 129.703 29.2763 130.087 30.3132C130.47 31.3501 130.662 32.5185 130.662 33.8182V35.1818H116.046V31.9432H125.25C125.243 31.4744 125.122 31.0625 124.888 30.7074C124.661 30.3452 124.352 30.0646 123.961 29.8658C123.578 29.6598 123.141 29.5568 122.651 29.5568C122.175 29.5568 121.738 29.6598 121.34 29.8658C120.943 30.0646 120.623 30.3416 120.382 30.6967C120.147 31.0518 120.023 31.4673 120.009 31.9432V35.4375C120.009 35.9631 120.119 36.4318 120.339 36.8438C120.559 37.2557 120.875 37.5788 121.287 37.8132C121.699 38.0476 122.196 38.1648 122.779 38.1648C123.183 38.1648 123.553 38.108 123.887 37.9943C124.227 37.8807 124.519 37.7173 124.76 37.5043C125.002 37.2841 125.179 37.0213 125.293 36.7159H130.662C130.477 37.8523 130.041 38.8395 129.352 39.6776C128.663 40.5085 127.75 41.1548 126.614 41.6165C125.485 42.071 124.164 42.2983 122.651 42.2983ZM133.062 48.1364V25.6364H138.9V28.4915H139.028C139.241 27.9375 139.553 27.4297 139.965 26.968C140.377 26.4993 140.888 26.1264 141.499 25.8494C142.11 25.5653 142.82 25.4233 143.63 25.4233C144.71 25.4233 145.736 25.7109 146.709 26.2862C147.689 26.8615 148.484 27.767 149.095 29.0028C149.713 30.2386 150.022 31.8437 150.022 33.8182C150.022 35.7074 149.727 37.2734 149.138 38.5163C148.555 39.7592 147.774 40.6861 146.794 41.2969C145.821 41.9077 144.752 42.2131 143.587 42.2131C142.82 42.2131 142.135 42.0888 141.531 41.8402C140.935 41.5845 140.423 41.2401 139.997 40.8068C139.578 40.3665 139.255 39.8693 139.028 39.3153H138.942V48.1364H133.062ZM138.815 33.8182C138.815 34.6136 138.918 35.3026 139.124 35.8849C139.337 36.4602 139.635 36.9077 140.018 37.2273C140.409 37.5398 140.874 37.696 141.414 37.696C141.954 37.696 142.412 37.5433 142.788 37.2379C143.172 36.9254 143.463 36.4815 143.662 35.9062C143.868 35.3239 143.971 34.6278 143.971 33.8182C143.971 33.0085 143.868 32.3161 143.662 31.7408C143.463 31.1584 143.172 30.7145 142.788 30.4091C142.412 30.0966 141.954 29.9403 141.414 29.9403C140.874 29.9403 140.409 30.0966 140.018 30.4091C139.635 30.7145 139.337 31.1584 139.124 31.7408C138.918 32.3161 138.815 33.0085 138.815 33.8182ZM162.244 25.6364V29.8977H151.463V25.6364H162.244ZM153.551 21.7159H159.432V36.7372C159.432 36.9645 159.471 37.1562 159.549 37.3125C159.627 37.4616 159.748 37.5753 159.911 37.6534C160.074 37.7244 160.284 37.7599 160.54 37.7599C160.717 37.7599 160.923 37.7386 161.157 37.696C161.399 37.6534 161.577 37.6179 161.69 37.5895L162.542 41.723C162.28 41.8011 161.903 41.897 161.413 42.0107C160.93 42.1243 160.355 42.1989 159.687 42.2344C158.338 42.3054 157.205 42.1669 156.289 41.8189C155.373 41.4638 154.684 40.9062 154.222 40.1463C153.76 39.3864 153.537 38.4347 153.551 37.2912V21.7159ZM170.833 20.1818V42H164.91V20.1818H170.833ZM182.078 33.9034H186.68L188.342 35.9915L191.155 39.1875L194.82 43.6193H189.578L186.979 40.5938L185.232 38.0795L182.078 33.9034ZM194.777 31.0909C194.777 33.5199 194.305 35.5689 193.36 37.2379C192.415 38.8999 191.141 40.1605 189.536 41.0199C187.93 41.8722 186.141 42.2983 184.166 42.2983C182.178 42.2983 180.381 41.8686 178.776 41.0092C177.178 40.1428 175.906 38.8786 174.962 37.2166C174.024 35.5476 173.555 33.5057 173.555 31.0909C173.555 28.6619 174.024 26.6165 174.962 24.9545C175.906 23.2855 177.178 22.0249 178.776 21.1726C180.381 20.3132 182.178 19.8835 184.166 19.8835C186.141 19.8835 187.93 20.3132 189.536 21.1726C191.141 22.0249 192.415 23.2855 193.36 24.9545C194.305 26.6165 194.777 28.6619 194.777 31.0909ZM188.683 31.0909C188.683 29.7841 188.509 28.6832 188.161 27.7884C187.82 26.8864 187.313 26.2045 186.638 25.7429C185.97 25.2741 185.146 25.0398 184.166 25.0398C183.186 25.0398 182.359 25.2741 181.684 25.7429C181.016 26.2045 180.509 26.8864 180.161 27.7884C179.82 28.6832 179.649 29.7841 179.649 31.0909C179.649 32.3977 179.82 33.5021 180.161 34.4041C180.509 35.299 181.016 35.9808 181.684 36.4496C182.359 36.9112 183.186 37.142 184.166 37.142C185.146 37.142 185.97 36.9112 186.638 36.4496C187.313 35.9808 187.82 35.299 188.161 34.4041C188.509 33.5021 188.683 32.3977 188.683 31.0909Z" fill="#002251"/>
<path d="M85.3082 48.7273V56H83.5504V48.7273H85.3082ZM91.1845 51.103C91.1442 50.9538 91.085 50.8224 91.0069 50.7088C90.9288 50.5928 90.8329 50.4946 90.7193 50.4141C90.6056 50.3336 90.4754 50.2732 90.3287 50.233C90.1819 50.1903 90.0209 50.169 89.8457 50.169C89.493 50.169 89.1876 50.2543 88.9295 50.4247C88.6738 50.5952 88.4761 50.8437 88.3365 51.1705C88.1968 51.4948 88.127 51.889 88.127 52.353C88.127 52.8194 88.1944 53.2171 88.3294 53.5462C88.4643 53.8752 88.6596 54.1262 88.9153 54.299C89.171 54.4718 89.4811 54.5582 89.8457 54.5582C90.1677 54.5582 90.4399 54.5062 90.6625 54.402C90.8874 54.2955 91.0578 54.1451 91.1738 53.951C91.2898 53.7569 91.3478 53.5284 91.3478 53.2656L91.6745 53.3047H89.9061V52.0227H93.0417V52.9851C93.0417 53.6361 92.9032 54.1937 92.6262 54.6577C92.3516 55.1217 91.9728 55.478 91.4899 55.7266C91.0093 55.9751 90.4565 56.0994 89.8315 56.0994C89.1378 56.0994 88.5282 55.9491 88.0027 55.6484C87.4771 55.3478 87.0675 54.9193 86.774 54.3629C86.4804 53.8042 86.3336 53.1413 86.3336 52.3743C86.3336 51.7777 86.4224 51.2486 86.6 50.7869C86.7775 50.3229 87.0249 49.9299 87.3422 49.608C87.6618 49.286 88.0311 49.0421 88.4501 48.8764C88.8715 48.7107 89.3249 48.6278 89.8102 48.6278C90.2316 48.6278 90.6234 48.6882 90.9856 48.8089C91.3502 48.9297 91.6722 49.1001 91.9515 49.3203C92.2333 49.5405 92.4617 49.8021 92.6369 50.1051C92.8121 50.4081 92.921 50.7408 92.9636 51.103H91.1845ZM100.267 48.7273V56H98.7759L95.8817 51.8026H95.8356V56H94.0778V48.7273H95.5906L98.4528 52.9176H98.5131V48.7273H100.267ZM103.131 48.7273V56H101.373V48.7273H103.131ZM103.996 50.1548V48.7273H110.143V50.1548H107.938V56H106.205V50.1548H103.996ZM111.002 56V48.7273H116.073V50.1548H112.759V51.6463H115.813V53.0774H112.759V54.5724H116.073V56H111.002ZM118.025 51.6364H119.203L120.126 53.4624H120.164L121.087 51.6364H122.265L120.669 54.5426V56H119.621V54.5426L118.025 51.6364ZM126.539 53.8182C126.539 54.2983 126.446 54.7053 126.262 55.0391C126.077 55.3729 125.827 55.6264 125.512 55.7997C125.198 55.973 124.846 56.0597 124.455 56.0597C124.063 56.0597 123.71 55.9723 123.396 55.7976C123.082 55.6229 122.833 55.3693 122.648 55.0369C122.465 54.7031 122.373 54.2969 122.373 53.8182C122.373 53.3381 122.465 52.9311 122.648 52.5973C122.833 52.2635 123.082 52.0099 123.396 51.8366C123.71 51.6634 124.063 51.5767 124.455 51.5767C124.846 51.5767 125.198 51.6634 125.512 51.8366C125.827 52.0099 126.077 52.2635 126.262 52.5973C126.446 52.9311 126.539 53.3381 126.539 53.8182ZM125.461 53.8182C125.461 53.5341 125.42 53.294 125.339 53.098C125.26 52.902 125.145 52.7536 124.994 52.6527C124.845 52.5518 124.665 52.5014 124.455 52.5014C124.246 52.5014 124.066 52.5518 123.916 52.6527C123.765 52.7536 123.65 52.902 123.569 53.098C123.489 53.294 123.449 53.5341 123.449 53.8182C123.449 54.1023 123.489 54.3423 123.569 54.5384C123.65 54.7344 123.765 54.8828 123.916 54.9837C124.066 55.0845 124.246 55.1349 124.455 55.1349C124.665 55.1349 124.845 55.0845 124.994 54.9837C125.145 54.8828 125.26 54.7344 125.339 54.5384C125.42 54.3423 125.461 54.1023 125.461 53.8182ZM129.794 51.6364H130.847V54.451C130.847 54.7763 130.77 55.0597 130.615 55.3011C130.46 55.5412 130.244 55.7273 129.967 55.8594C129.69 55.9901 129.368 56.0554 129.002 56.0554C128.631 56.0554 128.307 55.9901 128.03 55.8594C127.753 55.7273 127.538 55.5412 127.385 55.3011C127.231 55.0597 127.154 54.7763 127.154 54.451V51.6364H128.209V54.3594C128.209 54.5099 128.242 54.6442 128.307 54.7621C128.374 54.88 128.467 54.9723 128.586 55.0391C128.706 55.1058 128.844 55.1392 129.002 55.1392C129.159 55.1392 129.297 55.1058 129.415 55.0391C129.534 54.9723 129.627 54.88 129.694 54.7621C129.761 54.6442 129.794 54.5099 129.794 54.3594V51.6364ZM131.508 56V51.6364H133.311C133.637 51.6364 133.919 51.6953 134.156 51.8132C134.395 51.9297 134.579 52.0973 134.708 52.3161C134.838 52.5334 134.902 52.7912 134.902 53.0895C134.902 53.392 134.836 53.6491 134.704 53.8608C134.572 54.071 134.384 54.2315 134.142 54.3423C133.899 54.4517 133.611 54.5064 133.279 54.5064H132.139V53.6754H133.083C133.242 53.6754 133.374 53.6548 133.481 53.6136C133.589 53.571 133.671 53.5071 133.726 53.4219C133.781 53.3352 133.809 53.2244 133.809 53.0895C133.809 52.9545 133.781 52.843 133.726 52.755C133.671 52.6655 133.589 52.5987 133.481 52.5547C133.373 52.5092 133.24 52.4865 133.083 52.4865H132.563V56H131.508ZM133.965 54.0057L135.051 56H133.901L132.835 54.0057H133.965ZM137.824 51.6364V56H136.77V51.6364H137.824ZM142.2 51.6364V56H141.305L139.569 53.4815H139.541V56H138.487V51.6364H139.394L141.112 54.1506H141.148V51.6364H142.2ZM142.721 52.4929V51.6364H146.409V52.4929H145.086V56H144.046V52.4929H142.721ZM146.924 56V51.6364H149.967V52.4929H147.979V53.3878H149.811V54.2464H147.979V55.1435H149.967V56H146.924ZM150.627 56V51.6364H151.682V55.1435H153.497V56H150.627ZM154.043 56V51.6364H155.098V55.1435H156.913V56H154.043ZM158.514 51.6364V56H157.459V51.6364H158.514ZM162.04 53.0618C162.015 52.9723 161.98 52.8935 161.933 52.8253C161.886 52.7557 161.829 52.6967 161.76 52.6484C161.692 52.6001 161.614 52.5639 161.526 52.5398C161.438 52.5142 161.341 52.5014 161.236 52.5014C161.025 52.5014 160.841 52.5526 160.687 52.6548C160.533 52.7571 160.415 52.9062 160.331 53.1023C160.247 53.2969 160.205 53.5334 160.205 53.8118C160.205 54.0916 160.246 54.3303 160.327 54.5277C160.407 54.7251 160.525 54.8757 160.678 54.9794C160.831 55.0831 161.018 55.1349 161.236 55.1349C161.43 55.1349 161.593 55.1037 161.726 55.0412C161.861 54.9773 161.964 54.8871 162.033 54.7706C162.103 54.6541 162.138 54.517 162.138 54.3594L162.334 54.3828H161.273V53.6136H163.154V54.1911C163.154 54.5817 163.071 54.9162 162.905 55.1946C162.74 55.473 162.513 55.6868 162.223 55.8359C161.934 55.9851 161.603 56.0597 161.228 56.0597C160.812 56.0597 160.446 55.9695 160.131 55.7891C159.815 55.6087 159.569 55.3516 159.393 55.0178C159.217 54.6825 159.129 54.2848 159.129 53.8246C159.129 53.4666 159.182 53.1491 159.289 52.8722C159.395 52.5937 159.544 52.358 159.734 52.1648C159.926 51.9716 160.148 51.8253 160.399 51.7259C160.652 51.6264 160.924 51.5767 161.215 51.5767C161.468 51.5767 161.703 51.6129 161.92 51.6854C162.139 51.7578 162.332 51.8601 162.5 51.9922C162.669 52.1243 162.806 52.2812 162.911 52.4631C163.016 52.6449 163.081 52.8445 163.107 53.0618H162.04ZM163.776 56V51.6364H166.818V52.4929H164.83V53.3878H166.663V54.2464H164.83V55.1435H166.818V56H163.776ZM171.192 51.6364V56H170.298L168.561 53.4815H168.533V56H167.479V51.6364H168.386L170.104 54.1506H170.14V51.6364H171.192ZM175.817 53.2173H174.751C174.737 53.108 174.708 53.0092 174.664 52.9212C174.62 52.8331 174.562 52.7578 174.489 52.6953C174.417 52.6328 174.331 52.5852 174.231 52.5526C174.133 52.5185 174.025 52.5014 173.905 52.5014C173.694 52.5014 173.511 52.5533 173.358 52.657C173.206 52.7607 173.089 52.9105 173.006 53.1065C172.925 53.3026 172.885 53.5398 172.885 53.8182C172.885 54.108 172.926 54.3509 173.008 54.5469C173.092 54.7415 173.209 54.8885 173.36 54.9879C173.512 55.0859 173.692 55.1349 173.899 55.1349C174.015 55.1349 174.121 55.12 174.216 55.0902C174.313 55.0604 174.398 55.017 174.47 54.9602C174.544 54.902 174.604 54.8317 174.651 54.7493C174.699 54.6655 174.733 54.571 174.751 54.4659L175.817 54.4723C175.798 54.6655 175.742 54.8558 175.648 55.0433C175.556 55.2308 175.429 55.402 175.267 55.5568C175.105 55.7102 174.907 55.8324 174.675 55.9233C174.443 56.0142 174.177 56.0597 173.878 56.0597C173.483 56.0597 173.129 55.973 172.817 55.7997C172.506 55.625 172.26 55.3707 172.079 55.0369C171.899 54.7031 171.809 54.2969 171.809 53.8182C171.809 53.3381 171.9 52.9311 172.084 52.5973C172.267 52.2635 172.515 52.0099 172.827 51.8366C173.14 51.6634 173.49 51.5767 173.878 51.5767C174.142 51.5767 174.386 51.6136 174.611 51.6875C174.835 51.7599 175.032 51.8665 175.203 52.0071C175.373 52.1463 175.512 52.3175 175.618 52.5206C175.725 52.7237 175.791 52.956 175.817 53.2173ZM176.42 56V51.6364H179.463V52.4929H177.475V53.3878H179.307V54.2464H177.475V55.1435H179.463V56H176.42Z" fill="#002251"/>
</svg>
